<?xml version="1.0" encoding="utf-8"?>
<!-- Generator: Adobe Illustrator 21.0.0, SVG Export Plug-In . SVG Version: 6.00 Build 0)  -->
<svg version="1.1" id="Layer_1" xmlns="http://www.w3.org/2000/svg" xmlns:xlink="http://www.w3.org/1999/xlink" x="0px" y="0px"
	 width="64px" height="352px" viewBox="0 0 64 352" style="enable-background:new 0 0 64 352;" xml:space="preserve">
<style type="text/css">
	.st0{fill:#676766;}
	.st1{fill:#666666;}
	.st2{fill:#FFFFFF;}
	.st3{fill:#C9123F;}
	.st4{fill:#327DC0;}
	.st5{fill:#333333;}
	.st6{fill:#7B1713;}
	.st7{fill:#566B2F;}
	.st8{fill:#EECE4A;}
	.st9{fill:#3C3C44;}
	.st10{fill:#E71D73;}
	.st11{fill:#DDDDDD;}
	.st12{fill:url(#SVGID_1_);}
	.st13{fill:none;stroke:#3C3C44;stroke-linecap:round;stroke-miterlimit:10;}
	.st14{fill:none;stroke:#FFFFFF;stroke-linecap:round;stroke-miterlimit:10;}
	.st15{fill:url(#SVGID_2_);}
	.st16{fill:#EECE49;}
</style>
<path class="st0" d="M16,28c0,0,4.5-3.4,7.1-6.3c1.8-2,4.9-5.7,4.9-10.3C28,6.2,24.5,4,21.7,4C17.8,4,16,7.4,16,7.4S14.2,4,10.3,4
	C7.5,4,4,6.2,4,11.4c0,4.6,3.2,8.3,4.9,10.3C11.5,24.6,16,28,16,28z"/>
<path class="st0" d="M11,47.6c0,0,0,5.7,0,7.5c0,1.6,0.6,2.4,1.6,2.8c2.3,1.1,7.4,1.9,9.4,2s2.4-0.9,2.8-1.8
	c0.4-0.9,2.9-8.1,3.1-10.1c0.3-2-0.4-2.5-1.4-2.8c-0.6-0.2-3.2-0.6-4.1-0.9c-0.8-0.3-0.4-0.9,0-1.5c0.3-0.4,1.5-2.4,1.8-3.3
	c0.4-1.5,0.2-2.8-0.4-3.4c-0.6-0.5-1.5-0.2-1.9,0.4c-1,1.7-2.3,3.3-4.4,4.6c-2.1,1.3-3.8,2.3-4.9,3.1C11.3,45.2,11,45.8,11,47.6z"/>
<path class="st0" d="M8.7,58.1l-4.7,0V45l4.7,0c0.5,0,0.9,0.5,0.9,1v11C9.6,57.6,9.2,58.1,8.7,58.1z"/>
<path class="st0" d="M21,80.4c0,0,0-5.7,0-7.5c0-1.6-0.6-2.4-1.6-2.8C17.1,69,12,68.2,10,68s-2.4,0.9-2.8,1.8
	c-0.4,0.9-2.9,8.1-3.1,10.1c-0.3,2,0.4,2.5,1.4,2.8c0.6,0.2,3.2,0.6,4.1,0.9c0.8,0.3,0.4,0.9,0,1.5c-0.3,0.4-1.5,2.4-1.8,3.3
	c-0.4,1.5-0.2,2.8,0.4,3.4c0.6,0.5,1.5,0.2,1.9-0.4c1-1.7,2.3-3.3,4.4-4.6c2.1-1.3,3.8-2.3,4.9-3.1C20.7,82.8,21,82.2,21,80.4z"/>
<path class="st0" d="M23.3,70l4.7,0v13.1l-4.7,0c-0.5,0-0.9-0.5-0.9-1V71C22.4,70.5,22.8,70,23.3,70z"/>
<polygon class="st1" points="28,101.9 26.1,100 16,110.1 5.9,100 4,101.9 14.1,112 4,122.1 5.9,124 16,113.9 26.1,124 28,122.1 
	17.9,112 "/>
<polygon class="st1" points="25.8,132 10.4,152 5.9,147.7 4,149.5 10.7,156 28,133.6 "/>
<path class="st0" d="M19.1,188h-6.1C8,188,4,184,4,179.1v-6.1c0-4.9,4-8.9,8.9-8.9h6.1c4.9,0,8.9,4,8.9,8.9v6.1
	C28,184,24,188,19.1,188z"/>
<g>
	<g>
		<path class="st2" d="M15.9,183.7c-4.6,0-5.6-3.4-5.6-3.4c-0.1-0.3,0.1-0.5,0.3-0.6c0.3-0.1,0.5,0.1,0.6,0.3c0,0.1,0.8,2.7,4.6,2.7
			c3.8,0,4.6-2.7,4.6-2.7c0.1-0.3,0.3-0.4,0.6-0.3c0.3,0.1,0.4,0.3,0.3,0.6C21.5,180.3,20.5,183.7,15.9,183.7z"/>
	</g>
	<g>
		<path class="st2" d="M13.1,173.7c-0.3,0-0.5-0.2-0.5-0.4c0,0-0.2-1.9-1.3-1.9c-1.1,0-1.3,1.8-1.3,1.9c0,0.3-0.3,0.5-0.6,0.4
			c-0.3,0-0.5-0.3-0.4-0.6c0.1-1,0.7-2.8,2.3-2.8c1.6,0,2.2,1.7,2.3,2.8C13.7,173.4,13.5,173.6,13.1,173.7
			C13.2,173.7,13.1,173.7,13.1,173.7z"/>
	</g>
	<g>
		<path class="st2" d="M18.9,173.7C18.9,173.7,18.8,173.7,18.9,173.7c-0.3,0-0.5-0.3-0.5-0.6c0.1-1,0.7-2.8,2.3-2.8
			c1.6,0,2.2,1.7,2.3,2.8c0,0.3-0.2,0.5-0.4,0.6c-0.3,0-0.5-0.2-0.6-0.4c0,0-0.2-1.9-1.3-1.9c-1.1,0-1.3,1.8-1.3,1.9
			C19.3,173.5,19.1,173.7,18.9,173.7z"/>
	</g>
</g>
<path class="st3" d="M48,28c0,0,4.5-3.4,7.1-6.3c1.8-2,4.9-5.7,4.9-10.3C60,6.2,56.5,4,53.7,4C49.8,4,48,7.4,48,7.4S46.2,4,42.3,4
	C39.5,4,36,6.2,36,11.4c0,4.6,3.2,8.3,4.9,10.3C43.5,24.6,48,28,48,28z"/>
<path class="st4" d="M43,47.6c0,0,0,5.7,0,7.5c0,1.6,0.6,2.4,1.6,2.8c2.3,1.1,7.4,1.9,9.4,2c2,0.2,2.4-0.9,2.8-1.8
	c0.4-0.9,2.9-8.1,3.1-10.1c0.3-2-0.4-2.5-1.4-2.8c-0.6-0.2-3.2-0.6-4.1-0.9c-0.8-0.3-0.4-0.9,0-1.5c0.3-0.4,1.5-2.4,1.8-3.3
	c0.4-1.5,0.2-2.8-0.4-3.4c-0.6-0.5-1.5-0.2-1.9,0.4c-1,1.7-2.3,3.3-4.4,4.6c-2.1,1.3-3.8,2.3-4.9,3.1C43.3,45.2,43,45.8,43,47.6z"/>
<path class="st4" d="M40.7,58.1l-4.7,0V45l4.7,0c0.5,0,0.9,0.5,0.9,1v11C41.6,57.6,41.2,58.1,40.7,58.1z"/>
<path class="st5" d="M53,80.4c0,0,0-5.7,0-7.5c0-1.6-0.6-2.4-1.6-2.8C49.1,69,44,68.2,42,68c-2-0.2-2.4,0.9-2.8,1.8
	c-0.4,0.9-2.9,8.1-3.1,10.1c-0.3,2,0.4,2.5,1.4,2.8c0.6,0.2,3.2,0.6,4.1,0.9c0.8,0.3,0.4,0.9,0,1.5c-0.3,0.4-1.5,2.4-1.8,3.3
	c-0.4,1.5-0.2,2.8,0.4,3.4c0.6,0.5,1.5,0.2,1.9-0.4c1-1.7,2.3-3.3,4.4-4.6c2.1-1.3,3.8-2.3,4.9-3.1C52.7,82.8,53,82.2,53,80.4z"/>
<path class="st5" d="M55.3,70l4.7,0v13.1l-4.7,0c-0.5,0-0.9-0.5-0.9-1V71C54.4,70.5,54.8,70,55.3,70z"/>
<polygon class="st6" points="60,101.9 58.1,100 48,110.1 37.9,100 36,101.9 46.1,112 36,122.1 37.9,124 48,113.9 58.1,124 60,122.1 
	49.9,112 "/>
<polygon class="st7" points="57.8,132 42.4,152 37.9,147.7 36,149.5 42.7,156 60,133.6 "/>
<path class="st8" d="M51.1,188h-6.1c-4.9,0-8.9-4-8.9-8.9v-6.1c0-4.9,4-8.9,8.9-8.9h6.1c4.9,0,8.9,4,8.9,8.9v6.1
	C60,184,56,188,51.1,188z"/>
<g>
	<g>
		<path class="st9" d="M47.9,183.7c-4.6,0-5.6-3.4-5.6-3.4c-0.1-0.3,0.1-0.5,0.3-0.6c0.3-0.1,0.5,0.1,0.6,0.3c0,0.1,0.8,2.7,4.6,2.7
			c3.8,0,4.6-2.7,4.6-2.7c0.1-0.3,0.3-0.4,0.6-0.3c0.3,0.1,0.4,0.3,0.3,0.6C53.5,180.3,52.5,183.7,47.9,183.7z"/>
	</g>
	<g>
		<path class="st9" d="M45.1,173.7c-0.3,0-0.5-0.2-0.5-0.4c0,0-0.2-1.9-1.3-1.9c-1.1,0-1.3,1.8-1.3,1.9c0,0.3-0.3,0.5-0.6,0.4
			c-0.3,0-0.5-0.3-0.4-0.6c0.1-1,0.7-2.8,2.3-2.8c1.6,0,2.2,1.7,2.3,2.8C45.7,173.4,45.5,173.6,45.1,173.7
			C45.2,173.7,45.1,173.7,45.1,173.7z"/>
	</g>
	<g>
		<path class="st9" d="M50.9,173.7C50.9,173.7,50.8,173.7,50.9,173.7c-0.3,0-0.5-0.3-0.5-0.6c0.1-1,0.7-2.8,2.3-2.8
			c1.6,0,2.2,1.7,2.3,2.8c0,0.3-0.2,0.5-0.4,0.6c-0.3,0-0.5-0.2-0.6-0.4c0,0-0.2-1.9-1.3-1.9c-1.1,0-1.3,1.8-1.3,1.9
			C51.3,173.5,51.1,173.7,50.9,173.7z"/>
	</g>
</g>
<path class="st0" d="M19.1,220h-6.1C8,220,4,216,4,211.1v-6.1c0-4.9,4-8.9,8.9-8.9h6.1c4.9,0,8.9,4,8.9,8.9v6.1
	C28,216,24,220,19.1,220z"/>
<g>
	<path class="st2" d="M15.9,211.7c-4.6,0-5.6,3.3-5.6,3.3c-0.1,0.3,0.1,0.5,0.3,0.6c0.3,0.1,0.5-0.1,0.6-0.3c0-0.1,0.8-2.6,4.6-2.6
		c3.8,0,4.6,2.6,4.6,2.6c0.1,0.3,0.3,0.4,0.6,0.3c0.3-0.1,0.4-0.3,0.3-0.6C21.5,214.9,20.5,211.7,15.9,211.7z"/>
</g>
<g>
	<path class="st2" d="M13.1,205.7c-0.3,0-0.5-0.2-0.5-0.4c0,0-0.2-1.9-1.3-1.9c-1.1,0-1.3,1.8-1.3,1.9c0,0.3-0.3,0.5-0.6,0.4
		c-0.3,0-0.5-0.3-0.4-0.6c0.1-1,0.7-2.8,2.3-2.8c1.6,0,2.2,1.7,2.3,2.8C13.7,205.4,13.5,205.6,13.1,205.7
		C13.2,205.7,13.1,205.7,13.1,205.7z"/>
</g>
<g>
	<path class="st2" d="M18.9,205.7C18.9,205.7,18.8,205.7,18.9,205.7c-0.3,0-0.5-0.3-0.5-0.6c0.1-1,0.7-2.8,2.3-2.8
		c1.6,0,2.2,1.7,2.3,2.8c0,0.3-0.2,0.5-0.4,0.6c-0.3,0-0.5-0.2-0.6-0.4c0,0-0.2-1.9-1.3-1.9c-1.1,0-1.3,1.8-1.3,1.9
		C19.3,205.5,19.1,205.7,18.9,205.7z"/>
</g>
<path class="st8" d="M51.1,220h-6.1c-4.9,0-8.9-4-8.9-8.9v-6.1c0-4.9,4-8.9,8.9-8.9h6.1c4.9,0,8.9,4,8.9,8.9v6.1
	C60,216,56,220,51.1,220z"/>
<g>
	<path class="st9" d="M47.9,211.7c-4.6,0-5.6,3.3-5.6,3.3c-0.1,0.3,0.1,0.5,0.3,0.6c0.3,0.1,0.5-0.1,0.6-0.3c0-0.1,0.8-2.6,4.6-2.6
		c3.8,0,4.6,2.6,4.6,2.6c0.1,0.3,0.3,0.4,0.6,0.3c0.3-0.1,0.4-0.3,0.3-0.6C53.5,214.9,52.5,211.7,47.9,211.7z"/>
</g>
<g>
	<path class="st9" d="M45.1,205.7c-0.3,0-0.5-0.2-0.5-0.4c0,0-0.2-1.9-1.3-1.9c-1.1,0-1.3,1.8-1.3,1.9c0,0.3-0.3,0.5-0.6,0.4
		c-0.3,0-0.5-0.3-0.4-0.6c0.1-1,0.7-2.8,2.3-2.8c1.6,0,2.2,1.7,2.3,2.8C45.7,205.4,45.5,205.6,45.1,205.7
		C45.2,205.7,45.1,205.7,45.1,205.7z"/>
</g>
<g>
	<path class="st9" d="M50.9,205.7C50.9,205.7,50.8,205.7,50.9,205.7c-0.3,0-0.5-0.3-0.5-0.6c0.1-1,0.7-2.8,2.3-2.8
		c1.6,0,2.2,1.7,2.3,2.8c0,0.3-0.2,0.5-0.4,0.6c-0.3,0-0.5-0.2-0.6-0.4c0,0-0.2-1.9-1.3-1.9c-1.1,0-1.3,1.8-1.3,1.9
		C51.3,205.5,51.1,205.7,50.9,205.7z"/>
</g>
<path class="st8" d="M51.1,252h-6.1c-4.9,0-8.9-4-8.9-8.9v-6.1c0-4.9,4-8.9,8.9-8.9h6.1c4.9,0,8.9,4,8.9,8.9v6.1
	C60,248,56,252,51.1,252z"/>
<g>
	<path class="st9" d="M45.1,237.7c-0.3,0-0.5-0.2-0.5-0.4c0,0-0.2-1.9-1.3-1.9c-1.1,0-1.3,1.8-1.3,1.9c0,0.3-0.3,0.5-0.6,0.4
		c-0.3,0-0.5-0.3-0.4-0.6c0.1-1,0.7-2.8,2.3-2.8c1.6,0,2.2,1.7,2.3,2.8C45.7,237.4,45.5,237.6,45.1,237.7
		C45.2,237.7,45.1,237.7,45.1,237.7z"/>
</g>
<g>
	<path class="st9" d="M50.9,237.7C50.9,237.7,50.8,237.7,50.9,237.7c-0.3,0-0.5-0.3-0.5-0.6c0.1-1,0.7-2.8,2.3-2.8
		c1.6,0,2.2,1.7,2.3,2.8c0,0.3-0.2,0.5-0.4,0.6c-0.3,0-0.5-0.2-0.6-0.4c0,0-0.2-1.9-1.3-1.9c-1.1,0-1.3,1.8-1.3,1.9
		C51.3,237.5,51.1,237.7,50.9,237.7z"/>
</g>
<path class="st9" d="M48,244.3c1.7,0,3.3-0.2,5-0.6c1-0.2,1.4,0.9,0.5,1.9l0,0C52,247.2,50,248,48,248h0c-2,0-4-0.8-5.5-2.4l0,0
	c-0.9-1-0.5-2.2,0.5-1.9C44.7,244.1,46.3,244.3,48,244.3z"/>
<path class="st10" d="M48,248c0,0,2-3,5-2c1,1,0.6,2.3-0.1,2.9S50,250,48,248z"/>
<path class="st0" d="M19.1,252h-6.1C8,252,4,248,4,243.1v-6.1c0-4.9,4-8.9,8.9-8.9h6.1c4.9,0,8.9,4,8.9,8.9v6.1
	C28,248,24,252,19.1,252z"/>
<g>
	<path class="st2" d="M13.1,237.7c-0.3,0-0.5-0.2-0.5-0.4c0,0-0.2-1.9-1.3-1.9c-1.1,0-1.3,1.8-1.3,1.9c0,0.3-0.3,0.5-0.6,0.4
		c-0.3,0-0.5-0.3-0.4-0.6c0.1-1,0.7-2.8,2.3-2.8c1.6,0,2.2,1.7,2.3,2.8C13.7,237.4,13.5,237.6,13.1,237.7
		C13.2,237.7,13.1,237.7,13.1,237.7z"/>
</g>
<g>
	<path class="st2" d="M18.9,237.7C18.9,237.7,18.8,237.7,18.9,237.7c-0.3,0-0.5-0.3-0.5-0.6c0.1-1,0.7-2.8,2.3-2.8
		c1.6,0,2.2,1.7,2.3,2.8c0,0.3-0.2,0.5-0.4,0.6c-0.3,0-0.5-0.2-0.6-0.4c0,0-0.2-1.9-1.3-1.9c-1.1,0-1.3,1.8-1.3,1.9
		C19.3,237.5,19.1,237.7,18.9,237.7z"/>
</g>
<path class="st2" d="M16,244.3c1.7,0,3.3-0.2,5-0.6c1-0.2,1.4,0.9,0.5,1.9l0,0C20,247.2,18,248,16,248h0c-2,0-4-0.8-5.5-2.4l0,0
	c-0.9-1-0.5-2.2,0.5-1.9C12.7,244.1,14.3,244.3,16,244.3z"/>
<path class="st11" d="M16,248c0,0,2-3,5-2c1,1,0.6,2.3-0.1,2.9S18,250,16,248z"/>
<linearGradient id="SVGID_1_" gradientUnits="userSpaceOnUse" x1="48" y1="260" x2="48" y2="284">
	<stop  offset="0" style="stop-color:#A3195B"/>
	<stop  offset="9.669501e-02" style="stop-color:#A5255C"/>
	<stop  offset="0.2546" style="stop-color:#AC3B5F"/>
	<stop  offset="0.4539" style="stop-color:#B95E64"/>
	<stop  offset="0.6869" style="stop-color:#CB8B64"/>
	<stop  offset="0.9455" style="stop-color:#E7C251"/>
	<stop  offset="1" style="stop-color:#EECE49"/>
</linearGradient>
<path class="st12" d="M51.1,284h-6.1c-4.9,0-8.9-4-8.9-8.9v-6.1c0-4.9,4-8.9,8.9-8.9h6.1c4.9,0,8.9,4,8.9,8.9v6.1
	C60,280,56,284,51.1,284z"/>
<g>
	<path class="st13" d="M41,267c0,0,3,0,4.6,2.1"/>
</g>
<circle class="st9" cx="44" cy="269" r="1"/>
<g>
	<path class="st13" d="M55,267c0,0-3,0-4.6,2.1"/>
</g>
<circle class="st9" cx="52" cy="269" r="1"/>
<path class="st9" d="M48,280c3.6,0,6-0.2,6-1s-2-2-6-2s-6,1.2-6,2S44.4,280,48,280z"/>
<path class="st0" d="M19.1,284h-6.1C8,284,4,280,4,275.1v-6.1c0-4.9,4-8.9,8.9-8.9h6.1c4.9,0,8.9,4,8.9,8.9v6.1
	C28,280,24,284,19.1,284z"/>
<g>
	<path class="st14" d="M9,267c0,0,3,0,4.6,2.1"/>
</g>
<circle class="st2" cx="12" cy="269" r="1"/>
<g>
	<path class="st14" d="M23,267c0,0-3,0-4.6,2.1"/>
</g>
<circle class="st2" cx="20" cy="269" r="1"/>
<path class="st2" d="M16,280c3.6,0,6-0.2,6-1s-2-2-6-2s-6,1.2-6,2S12.4,280,16,280z"/>
<linearGradient id="SVGID_2_" gradientUnits="userSpaceOnUse" x1="48" y1="293" x2="48" y2="317">
	<stop  offset="0" style="stop-color:#69B42D"/>
	<stop  offset="0.1324" style="stop-color:#75B62F"/>
	<stop  offset="0.3482" style="stop-color:#93BC31"/>
	<stop  offset="0.6207" style="stop-color:#B9C437"/>
	<stop  offset="0.9364" style="stop-color:#E5CC45"/>
	<stop  offset="1" style="stop-color:#EECE49"/>
</linearGradient>
<path class="st15" d="M51.1,317h-6.1c-4.9,0-8.9-4-8.9-8.9v-6.1c0-4.9,4-8.9,8.9-8.9h6.1c4.9,0,8.9,4,8.9,8.9v6.1
	C60,313,56,317,51.1,317z"/>
<g>
	<line class="st13" x1="42" y1="299" x2="44" y2="301"/>
	<line class="st13" x1="44" y1="299" x2="42" y2="301"/>
</g>
<g>
	<line class="st13" x1="52" y1="299" x2="54" y2="301"/>
	<line class="st13" x1="54" y1="299" x2="52" y2="301"/>
</g>
<path class="st9" d="M53,311H43c-0.5,0-1-0.5-1-1l0,0c0-0.5,0.5-1,1-1h10c0.5,0,1,0.5,1,1l0,0C54,310.5,53.5,311,53,311z"/>
<path class="st0" d="M19.1,316h-6.1C8,316,4,312,4,307.1v-6.1c0-4.9,4-8.9,8.9-8.9h6.1c4.9,0,8.9,4,8.9,8.9v6.1
	C28,312,24,316,19.1,316z"/>
<g>
	<line class="st14" x1="10" y1="298" x2="12" y2="300"/>
	<line class="st14" x1="12" y1="298" x2="10" y2="300"/>
</g>
<g>
	<line class="st14" x1="20" y1="298" x2="22" y2="300"/>
	<line class="st14" x1="22" y1="298" x2="20" y2="300"/>
</g>
<path class="st2" d="M21,310H11c-0.5,0-1-0.5-1-1l0,0c0-0.5,0.4-1,1-1h10c0.5,0,1,0.5,1,1l0,0C22,309.5,21.6,310,21,310z"/>
<path class="st0" d="M16.5,324.4l2.7,7.7c0.1,0.2,0.3,0.3,0.5,0.4l7.8,0.3c0.5,0,0.7,0.6,0.3,0.9l-6.2,5.1c-0.2,0.1-0.2,0.3-0.2,0.6
	l2.1,8c0.1,0.5-0.4,0.9-0.8,0.6l-6.4-4.5c-0.2-0.1-0.4-0.1-0.6,0l-6.4,4.5c-0.4,0.3-1-0.1-0.8-0.6l2.1-8c0.1-0.2,0-0.4-0.2-0.6
	l-6.2-5.1c-0.4-0.3-0.2-0.9,0.3-0.9l7.8-0.3c0.2,0,0.4-0.2,0.5-0.4l2.7-7.7C15.7,323.9,16.3,323.9,16.5,324.4z"/>
<path class="st16" d="M48.5,324.4l2.7,7.7c0.1,0.2,0.3,0.3,0.5,0.4l7.8,0.3c0.5,0,0.7,0.6,0.3,0.9l-6.2,5.1
	c-0.2,0.1-0.2,0.3-0.2,0.6l2.1,8c0.1,0.5-0.4,0.9-0.8,0.6l-6.4-4.5c-0.2-0.1-0.4-0.1-0.6,0l-6.4,4.5c-0.4,0.3-1-0.1-0.8-0.6l2.1-8
	c0.1-0.2,0-0.4-0.2-0.6l-6.2-5.1c-0.4-0.3-0.2-0.9,0.3-0.9l7.8-0.3c0.2,0,0.4-0.2,0.5-0.4l2.7-7.7C47.7,323.9,48.3,323.9,48.5,324.4
	z"/>
</svg>
