<?xml version="1.0" encoding="utf-8"?>
<!-- Generator: Adobe Illustrator 21.0.0, SVG Export Plug-In . SVG Version: 6.00 Build 0)  -->
<svg version="1.1" id="Layer_1" xmlns="http://www.w3.org/2000/svg" xmlns:xlink="http://www.w3.org/1999/xlink" x="0px" y="0px"
	 width="26px" height="1170px" viewBox="0 0 26 1170" style="enable-background:new 0 0 26 1170;" xml:space="preserve">
<style type="text/css">
	.st0{fill:#666666;}
	.st1{fill:#FFFFFF;}
	.st2{fill:none;}
	.st3{fill:none;stroke:#666666;stroke-width:1.5;stroke-linecap:round;stroke-linejoin:round;stroke-miterlimit:10;}
	.st4{fill:none;stroke:#FFFFFF;stroke-width:1.5;stroke-linecap:round;stroke-linejoin:round;stroke-miterlimit:10;}
	.st5{opacity:0.25;fill:#FFDA05;}
	.st6{opacity:0.25;fill:#FBBF10;}
	.st7{opacity:0.25;fill:#F29120;}
	.st8{opacity:0.25;fill:#EB6524;}
	.st9{opacity:0.25;fill:#E42528;}
	.st10{opacity:0.25;fill:#BE282E;}
	.st11{opacity:0.25;fill:#951B1E;}
	.st12{opacity:0.25;fill:#981734;}
	.st13{opacity:0.25;fill:#7F217F;}
	.st14{opacity:0.25;fill:#642367;}
	.st15{opacity:0.25;fill:#29295F;}
	.st16{opacity:0.25;fill:#382A7F;}
	.st17{opacity:0.25;fill:#4D4092;}
	.st18{opacity:0.25;fill:#0D457F;}
	.st19{opacity:0.25;fill:#045A9B;}
	.st20{opacity:0.25;fill:#0671B8;}
	.st21{opacity:0.25;fill:#3787C7;}
	.st22{opacity:0.25;fill:#007F81;}
	.st23{opacity:0.25;fill:#00959E;}
	.st24{opacity:0.25;fill:#08A9B4;}
	.st25{opacity:0.25;fill:#09B4BF;}
	.st26{opacity:0.25;fill:#25AC79;}
	.st27{opacity:0.25;fill:#00A45D;}
	.st28{opacity:0.25;fill:#01885F;}
	.st29{opacity:0.25;fill:#006F53;}
	.st30{opacity:0.25;fill:#007938;}
	.st31{opacity:0.25;fill:#009241;}
	.st32{opacity:0.25;fill:#3BAB4D;}
	.st33{opacity:0.25;fill:#B1CC43;}
	.st34{opacity:0.25;fill:#8CB734;}
	.st35{opacity:0.25;fill:#9EC545;}
	.st36{opacity:0.25;fill:#C6D330;}
	.st37{opacity:0.25;fill:#FFEB5F;}
</style>
<path class="st0" d="M22.8,73.7l-5.6-5.6c1.1-1.4,1.8-3.2,1.8-5.1c0-4.4-3.6-8-8-8s-8,3.6-8,8s3.6,8,8,8c1.9,0,3.7-0.7,5.1-1.8
	l5.6,5.6c0.1,0.1,0.3,0.2,0.5,0.2s0.4-0.1,0.5-0.2C23.1,74.5,23.1,74,22.8,73.7z M4.5,63c0-3.6,2.9-6.5,6.5-6.5s6.5,2.9,6.5,6.5
	s-2.9,6.5-6.5,6.5S4.5,66.6,4.5,63z"/>
<path class="st1" d="M22.8,99.7l-5.6-5.6c1.1-1.4,1.8-3.2,1.8-5.1c0-4.4-3.6-8-8-8s-8,3.6-8,8s3.6,8,8,8c1.9,0,3.7-0.7,5.1-1.8
	l5.6,5.6c0.1,0.1,0.3,0.2,0.5,0.2s0.4-0.1,0.5-0.2C23.1,100.5,23.1,100,22.8,99.7z M4.5,89c0-3.6,2.9-6.5,6.5-6.5s6.5,2.9,6.5,6.5
	s-2.9,6.5-6.5,6.5S4.5,92.6,4.5,89z"/>
<path class="st0" d="M14.1,117l8.7-8.7c0.3-0.3,0.3-0.8,0-1.1s-0.8-0.3-1.1,0l-8.7,8.7l-8.7-8.7c-0.3-0.3-0.8-0.3-1.1,0
	s-0.3,0.8,0,1.1l8.7,8.7l-8.7,8.7c-0.3,0.3-0.3,0.8,0,1.1c0.1,0.1,0.3,0.2,0.5,0.2s0.4-0.1,0.5-0.2l8.7-8.7l8.7,8.7
	c0.1,0.1,0.3,0.2,0.5,0.2s0.4-0.1,0.5-0.2c0.3-0.3,0.3-0.8,0-1.1L14.1,117z"/>
<path class="st1" d="M14.1,143l8.7-8.7c0.3-0.3,0.3-0.8,0-1.1s-0.8-0.3-1.1,0l-8.7,8.7l-8.7-8.7c-0.3-0.3-0.8-0.3-1.1,0
	s-0.3,0.8,0,1.1l8.7,8.7l-8.7,8.7c-0.3,0.3-0.3,0.8,0,1.1c0.1,0.1,0.3,0.2,0.5,0.2s0.4-0.1,0.5-0.2l8.7-8.7l8.7,8.7
	c0.1,0.1,0.3,0.2,0.5,0.2s0.4-0.1,0.5-0.2c0.3-0.3,0.3-0.8,0-1.1L14.1,143z"/>
<g>
	<path class="st0" d="M13,172.8c-0.1,0-0.3,0-0.4-0.1l-9.2-6c-0.3-0.2-0.4-0.7-0.2-1c0.2-0.3,0.7-0.4,1-0.2l8.8,5.7l8.8-5.7
		c0.3-0.2,0.8-0.1,1,0.2c0.2,0.3,0.1,0.8-0.2,1l-9.2,6C13.3,172.7,13.1,172.8,13,172.8z"/>
</g>
<g>
	<path class="st0" d="M13,191.3c0.1,0,0.3,0,0.4,0.1l9.3,6c0.3,0.2,0.4,0.7,0.2,1c-0.2,0.3-0.7,0.4-1,0.2l-8.8-5.7l-8.8,5.7
		c-0.3,0.2-0.8,0.1-1-0.2c-0.2-0.3-0.1-0.8,0.2-1l9.2-6C12.7,191.3,12.9,191.3,13,191.3z"/>
</g>
<g>
	<path class="st0" d="M9.3,221c0-0.1,0-0.3,0.1-0.4l6-9.2c0.2-0.3,0.7-0.4,1-0.2c0.3,0.2,0.4,0.7,0.2,1l-5.7,8.8l5.7,8.8
		c0.2,0.3,0.1,0.8-0.2,1c-0.3,0.2-0.8,0.1-1-0.2l-6-9.2C9.3,221.3,9.3,221.1,9.3,221z"/>
</g>
<g>
	<path class="st0" d="M16.7,247c0,0.1,0,0.3-0.1,0.4l-6,9.2c-0.2,0.3-0.7,0.4-1,0.2c-0.3-0.2-0.4-0.7-0.2-1l5.7-8.8l-5.7-8.8
		c-0.2-0.3-0.1-0.8,0.2-1c0.3-0.2,0.8-0.1,1,0.2l6,9.2C16.7,246.7,16.7,246.9,16.7,247z"/>
</g>
<g>
	<path class="st1" d="M13,276.8c-0.1,0-0.3,0-0.4-0.1l-9.2-6c-0.3-0.2-0.4-0.7-0.2-1c0.2-0.3,0.7-0.4,1-0.2l8.8,5.7l8.8-5.7
		c0.3-0.2,0.8-0.1,1,0.2c0.2,0.3,0.1,0.8-0.2,1l-9.2,6C13.3,276.7,13.1,276.8,13,276.8z"/>
</g>
<g>
	<path class="st1" d="M13,295.3c0.1,0,0.3,0,0.4,0.1l9.2,6c0.3,0.2,0.4,0.7,0.2,1c-0.2,0.3-0.7,0.4-1,0.2l-8.8-5.7l-8.8,5.7
		c-0.3,0.2-0.8,0.1-1-0.2c-0.2-0.3-0.1-0.8,0.2-1l9.2-6C12.7,295.3,12.9,295.3,13,295.3z"/>
</g>
<g>
	<path class="st1" d="M9.3,325c0-0.1,0-0.3,0.1-0.4l6-9.2c0.2-0.3,0.7-0.4,1-0.2c0.3,0.2,0.4,0.7,0.2,1l-5.7,8.8l5.7,8.8
		c0.2,0.3,0.1,0.8-0.2,1c-0.3,0.2-0.8,0.1-1-0.2l-6-9.2C9.3,325.3,9.3,325.1,9.3,325z"/>
</g>
<g>
	<path class="st1" d="M16.8,351c0,0.1,0,0.3-0.1,0.4l-6,9.2c-0.2,0.3-0.7,0.4-1,0.2c-0.3-0.2-0.4-0.7-0.2-1l5.7-8.8l-5.7-8.8
		c-0.2-0.3-0.1-0.8,0.2-1c0.3-0.2,0.8-0.1,1,0.2l6,9.2C16.7,350.7,16.8,350.9,16.8,351z"/>
</g>
<path class="st0" d="M22,423h-4l-0.6-0.6c-0.3-0.3-0.7-0.4-1.1-0.4H9.6c-0.4,0-0.8,0.2-1.1,0.4L8,423H4c-0.5,0-1,0.4-1,1v11
	c0,0.5,0.4,1,1,1h18c0.5,0,1-0.4,1-1v-11C23,423.4,22.6,423,22,423z"/>
<path class="st1" d="M13,424.5c-2.5,0-4.5,2-4.5,4.5s2,4.5,4.5,4.5s4.5-2,4.5-4.5S15.5,424.5,13,424.5z M13,432.8
	c-2.1,0-3.8-1.7-3.8-3.8c0-2.1,1.7-3.8,3.8-3.8s3.8,1.7,3.8,3.8C16.8,431.1,15.1,432.8,13,432.8z"/>
<g>
	<circle class="st1" cx="20.5" cy="425.5" r="0.5"/>
</g>
<g>
	<circle class="st1" cx="13" cy="455" r="3.8"/>
	<path class="st1" d="M22,449h-4l-0.6-0.6c-0.3-0.3-0.7-0.4-1.1-0.4H9.6c-0.4,0-0.8,0.2-1.1,0.4L8,449H4c-0.5,0-1,0.4-1,1v11
		c0,0.5,0.4,1,1,1h18c0.5,0,1-0.4,1-1v-11C23,449.4,22.6,449,22,449z M13,459.5c-2.5,0-4.5-2-4.5-4.5s2-4.5,4.5-4.5s4.5,2,4.5,4.5
		S15.5,459.5,13,459.5z M20.5,452c-0.3,0-0.5-0.2-0.5-0.5s0.2-0.5,0.5-0.5s0.5,0.2,0.5,0.5S20.8,452,20.5,452z"/>
</g>
<g>
	<path class="st0" d="M22.2,368.5H3.8c-0.4,0-0.8-0.3-0.8-0.8s0.3-0.8,0.8-0.8h18.5c0.4,0,0.8,0.3,0.8,0.8S22.7,368.5,22.2,368.5z"
		/>
</g>
<g>
	<path class="st0" d="M22.2,387H3.8c-0.4,0-0.8-0.3-0.8-0.8s0.3-0.8,0.8-0.8h18.5c0.4,0,0.8,0.3,0.8,0.8S22.7,387,22.2,387z"/>
</g>
<g>
	<path class="st0" d="M22.2,377.8H3.8c-0.4,0-0.8-0.3-0.8-0.8s0.3-0.8,0.8-0.8h18.5c0.4,0,0.8,0.3,0.8,0.8S22.7,377.8,22.2,377.8z"
		/>
</g>
<g>
	<path class="st1" d="M22.2,394.5H3.8c-0.4,0-0.8-0.3-0.8-0.8s0.3-0.8,0.8-0.8h18.5c0.4,0,0.8,0.3,0.8,0.8S22.7,394.5,22.2,394.5z"
		/>
</g>
<g>
	<path class="st1" d="M22.2,413H3.8c-0.4,0-0.8-0.3-0.8-0.8s0.3-0.8,0.8-0.8h18.5c0.4,0,0.8,0.3,0.8,0.8S22.7,413,22.2,413z"/>
</g>
<g>
	<path class="st1" d="M22.2,403.8H3.8c-0.4,0-0.8-0.3-0.8-0.8s0.3-0.8,0.8-0.8h18.5c0.4,0,0.8,0.3,0.8,0.8S22.7,403.8,22.2,403.8z"
		/>
</g>
<g>
	<path class="st0" d="M9,526l-3,14h14l-2-7l-3,2L9,526L9,526z"/>
</g>
<circle class="st0" cx="18.5" cy="529.5" r="1.5"/>
<polygon class="st1" points="9,552 6,566 20,566 18,559 15,561 9,552 "/>
<circle class="st1" cx="18.5" cy="555.5" r="1.5"/>
<path class="st0" d="M13,578c-1.7,0-3,1.8-3,4s1.3,4,3,4s3-1.8,3-4S14.7,578,13,578L13,578z"/>
<g>
	<path class="st0" d="M13,592c-6.1,0-7-0.9-7-1.5c0-1.2,2.9-3.5,7-3.5s7,2.4,7,3.5C20,591.1,19.1,592,13,592z"/>
</g>
<path class="st1" d="M13,604c-1.7,0-3,1.8-3,4s1.3,4,3,4s3-1.8,3-4S14.7,604,13,604L13,604z"/>
<g>
	<path class="st1" d="M13,618c-6.1,0-7-0.9-7-1.5c0-1.2,2.9-3.5,7-3.5s7,2.4,7,3.5C20,617.1,19.1,618,13,618z"/>
</g>
<polygon class="st0" points="20,485 13,481 20,477 "/>
<path class="st0" d="M13,485H7c-0.6,0-1-0.4-1-1v-6c0-0.6,0.4-1,1-1h6c0.6,0,1,0.4,1,1v6C14,484.6,13.6,485,13,485z"/>
<polygon class="st1" points="20,511 13,507 20,503 "/>
<path class="st1" d="M13,511H7c-0.6,0-1-0.4-1-1v-6c0-0.6,0.4-1,1-1h6c0.6,0,1,0.4,1,1v6C14,510.6,13.6,511,13,511z"/>
<path class="st0" d="M3,643c0,1.7,3.5,2,8,2s8-0.4,8-2c0-1.6-3.5-4-8-4l0,0C6.5,639,3,641.4,3,643"/>
<ellipse class="st0" cx="11" cy="633.5" rx="4" ry="4.5"/>
<path class="st1" d="M3,669c0,1.7,3.5,2,8,2s8-0.4,8-2c0-1.6-3.5-4-8-4l0,0C6.5,665,3,667.4,3,669"/>
<ellipse class="st1" cx="11" cy="659.5" rx="4" ry="4.5"/>
<path class="st0" d="M3,695c0,1.7,3.5,2,8,2s8-0.4,8-2c0-1.6-3.5-4-8-4l0,0C6.5,691,3,693.4,3,695"/>
<ellipse class="st0" cx="11" cy="685.5" rx="4" ry="4.5"/>
<g>
	<path class="st0" d="M18.1,689c-0.2,0-0.3-0.1-0.5-0.2l-1.3-1.1c-0.3-0.3-0.4-0.7-0.1-1.1c0.3-0.3,0.7-0.4,1.1-0.1l0.7,0.6l3.7-4.9
		c0.2-0.3,0.7-0.4,1-0.1c0.3,0.2,0.4,0.7,0.1,1l-4.2,5.5C18.6,688.9,18.4,689,18.1,689C18.1,689,18.1,689,18.1,689z"/>
</g>
<path class="st1" d="M3,721c0,1.7,3.5,2,8,2s8-0.4,8-2c0-1.6-3.5-4-8-4l0,0C6.5,717,3,719.4,3,721"/>
<ellipse class="st1" cx="11" cy="711.5" rx="4" ry="4.5"/>
<g>
	<path class="st1" d="M18.1,715c-0.2,0-0.3-0.1-0.5-0.2l-1.3-1.1c-0.3-0.3-0.4-0.7-0.1-1.1c0.3-0.3,0.7-0.4,1.1-0.1l0.7,0.6l3.7-4.9
		c0.2-0.3,0.7-0.4,1-0.1c0.3,0.2,0.4,0.7,0.1,1l-4.2,5.5C18.6,714.9,18.4,715,18.1,715C18.1,715,18.1,715,18.1,715z"/>
</g>
<path class="st0" d="M22.2,632.8h-2v-2c0-0.4-0.3-0.8-0.8-0.8s-0.8,0.3-0.8,0.8v2h-2c-0.4,0-0.8,0.3-0.8,0.8s0.3,0.8,0.8,0.8h2v2
	c0,0.4,0.3,0.8,0.8,0.8s0.8-0.3,0.8-0.8v-2h2c0.4,0,0.8-0.3,0.8-0.8S22.7,632.8,22.2,632.8z"/>
<path class="st1" d="M22.2,658.8h-2v-2c0-0.4-0.3-0.8-0.8-0.8s-0.8,0.3-0.8,0.8v2h-2c-0.4,0-0.8,0.3-0.8,0.8s0.3,0.8,0.8,0.8h2v2
	c0,0.4,0.3,0.8,0.8,0.8s0.8-0.3,0.8-0.8v-2h2c0.4,0,0.8-0.3,0.8-0.8S22.7,658.8,22.2,658.8z"/>
<g>
	<g>
		<path class="st0" d="M4.5,733.4l15.1,7.6l-15.1,7.6V733.4 M3,731v20l20-10L3,731L3,731z"/>
	</g>
</g>
<g>
	<g>
		<path class="st1" d="M4.5,759.4l15.1,7.6l-15.1,7.6V759.4 M3,757v20l20-10L3,757L3,757z"/>
	</g>
</g>
<rect x="7" y="783" class="st0" width="1.5" height="20"/>
<rect x="17.5" y="783" class="st0" width="1.5" height="20"/>
<rect x="7" y="809" class="st1" width="1.5" height="20"/>
<rect x="17.5" y="809" class="st1" width="1.5" height="20"/>
<path class="st0" d="M6.2,848.2c-0.1-0.1-0.3-0.2-0.5-0.2H3.6c-0.3,0-0.6-0.3-0.6-0.6v-4.8c0-0.3,0.3-0.6,0.6-0.6h2.1
	c0.2,0,0.3-0.1,0.5-0.2l5.8-6.6c0.4-0.4,1.1-0.2,1.1,0.4v18.8c0,0.6-0.7,0.8-1.1,0.4L6.2,848.2z"/>
<g>
	<path class="st0" d="M16.2,854.4c-0.3,0-0.6-0.2-0.7-0.5c-0.1-0.4,0.1-0.8,0.4-1c3.3-1.2,5.5-4.4,5.5-7.9c0-3.5-2.2-6.7-5.5-7.9
		c-0.4-0.1-0.6-0.6-0.4-1c0.1-0.4,0.6-0.6,1-0.4c3.9,1.4,6.5,5.2,6.5,9.3c0,4.1-2.6,7.9-6.5,9.3C16.4,854.3,16.3,854.4,16.2,854.4z"
		/>
</g>
<g>
	<path class="st0" d="M16.2,848.7c-0.2,0-0.4-0.1-0.5-0.2c-0.3-0.3-0.3-0.8,0-1.1c0.7-0.7,1-1.5,1-2.4s-0.4-1.8-1-2.4
		c-0.3-0.3-0.3-0.8,0-1.1c0.3-0.3,0.8-0.3,1.1,0c0.9,0.9,1.5,2.2,1.5,3.5c0,1.3-0.5,2.6-1.5,3.5C16.6,848.7,16.4,848.7,16.2,848.7z"
		/>
</g>
<path class="st1" d="M6.2,874.2c-0.1-0.1-0.3-0.2-0.5-0.2H3.6c-0.3,0-0.6-0.3-0.6-0.6v-4.8c0-0.3,0.3-0.6,0.6-0.6h2.1
	c0.2,0,0.3-0.1,0.5-0.2l5.8-6.6c0.4-0.4,1.1-0.2,1.1,0.4v18.8c0,0.6-0.7,0.8-1.1,0.4L6.2,874.2z"/>
<g>
	<path class="st1" d="M16.2,880.4c-0.3,0-0.6-0.2-0.7-0.5c-0.1-0.4,0.1-0.8,0.4-1c3.3-1.2,5.5-4.4,5.5-7.9c0-3.5-2.2-6.7-5.5-7.9
		c-0.4-0.1-0.6-0.6-0.4-1c0.1-0.4,0.6-0.6,1-0.4c3.9,1.4,6.5,5.2,6.5,9.3c0,4.1-2.6,7.9-6.5,9.3C16.4,880.3,16.3,880.4,16.2,880.4z"
		/>
</g>
<g>
	<path class="st1" d="M16.2,874.7c-0.2,0-0.4-0.1-0.5-0.2c-0.3-0.3-0.3-0.8,0-1.1c0.7-0.7,1-1.5,1-2.4s-0.4-1.8-1-2.4
		c-0.3-0.3-0.3-0.8,0-1.1c0.3-0.3,0.8-0.3,1.1,0c0.9,0.9,1.5,2.2,1.5,3.5c0,1.3-0.5,2.6-1.5,3.5C16.6,874.7,16.4,874.7,16.2,874.7z"
		/>
</g>
<path class="st0" d="M6.2,900.2c-0.1-0.1-0.3-0.2-0.5-0.2H3.6c-0.3,0-0.6-0.3-0.6-0.6v-4.8c0-0.3,0.3-0.6,0.6-0.6h2.1
	c0.2,0,0.3-0.1,0.5-0.2l5.8-6.6c0.4-0.4,1.1-0.2,1.1,0.4v18.8c0,0.6-0.7,0.8-1.1,0.4L6.2,900.2z"/>
<path class="st0" d="M20.1,897l2.7-2.7c0.3-0.3,0.3-0.8,0-1.1s-0.8-0.3-1.1,0l-2.7,2.7l-2.7-2.7c-0.3-0.3-0.8-0.3-1.1,0
	s-0.3,0.8,0,1.1l2.7,2.7l-2.7,2.7c-0.3,0.3-0.3,0.8,0,1.1c0.1,0.1,0.3,0.2,0.5,0.2s0.4-0.1,0.5-0.2l2.7-2.7l2.7,2.7
	c0.1,0.1,0.3,0.2,0.5,0.2s0.4-0.1,0.5-0.2c0.3-0.3,0.3-0.8,0-1.1L20.1,897z"/>
<path class="st1" d="M6.2,926.2c-0.1-0.1-0.3-0.2-0.5-0.2H3.6c-0.3,0-0.6-0.3-0.6-0.6v-4.8c0-0.3,0.3-0.6,0.6-0.6h2.1
	c0.2,0,0.3-0.1,0.5-0.2l5.8-6.6c0.4-0.4,1.1-0.2,1.1,0.4v18.8c0,0.6-0.7,0.8-1.1,0.4L6.2,926.2z"/>
<path class="st1" d="M20.1,923l2.7-2.7c0.3-0.3,0.3-0.8,0-1.1s-0.8-0.3-1.1,0l-2.7,2.7l-2.7-2.7c-0.3-0.3-0.8-0.3-1.1,0
	s-0.3,0.8,0,1.1l2.7,2.7l-2.7,2.7c-0.3,0.3-0.3,0.8,0,1.1c0.1,0.1,0.3,0.2,0.5,0.2s0.4-0.1,0.5-0.2l2.7-2.7l2.7,2.7
	c0.1,0.1,0.3,0.2,0.5,0.2s0.4-0.1,0.5-0.2c0.3-0.3,0.3-0.8,0-1.1L20.1,923z"/>
<g>
	<path class="st0" d="M21.5,957.5H15v1.5h7c0.6,0,1-0.4,1-1v-7h-1.5V957.5z"/>
	<path class="st0" d="M21.5,947H23v-7c0-0.6-0.4-1-1-1h-7v1.5h6.5V947z"/>
	<path class="st0" d="M4.5,940.5H11V939H4c-0.6,0-1,0.4-1,1v7h1.5V940.5z"/>
	<path class="st0" d="M4.5,951H3v7c0,0.6,0.4,1,1,1h7v-1.5H4.5V951z"/>
</g>
<g>
	<path class="st1" d="M21.5,983.5H15v1.5h7c0.6,0,1-0.4,1-1v-7h-1.5V983.5z"/>
	<path class="st1" d="M21.5,973H23v-7c0-0.6-0.4-1-1-1h-7v1.5h6.5V973z"/>
	<path class="st1" d="M4.5,966.5H11V965H4c-0.6,0-1,0.4-1,1v7h1.5V966.5z"/>
	<path class="st1" d="M4.5,977H3v7c0,0.6,0.4,1,1,1h7v-1.5H4.5V977z"/>
</g>
<path class="st0" d="M22.2,998.4c-0.4,0-0.8,0.3-0.8,0.8v8.1c0,1.2-1,2.3-2.3,2.3H6.8c-1.2,0-2.3-1-2.3-2.3V997c0-1.2,1-2.3,2.3-2.3
	H16v2.2l7-3l-7-3v2.2H6.8c-2.1,0-3.8,1.7-3.8,3.8v10.2c0,2.1,1.7,3.8,3.8,3.8h12.5c2.1,0,3.8-1.7,3.8-3.8v-8.1
	C23,998.7,22.7,998.4,22.2,998.4z"/>
<path class="st1" d="M22.2,1024.4c-0.4,0-0.8,0.3-0.8,0.8v8.1c0,1.2-1,2.3-2.3,2.3H6.8c-1.2,0-2.3-1-2.3-2.3V1023
	c0-1.2,1-2.3,2.3-2.3H16v2.2l7-3l-7-3v2.2H6.8c-2.1,0-3.8,1.7-3.8,3.8v10.2c0,2.1,1.7,3.8,3.8,3.8h12.5c2.1,0,3.8-1.7,3.8-3.8v-8.1
	C23,1024.7,22.7,1024.4,22.2,1024.4z"/>
<path class="st0" d="M13,1045.4v-2.2l-7,3l7,3v-2.2c4,0,7.2,3.3,7.2,7.2s-3.3,7.2-7.2,7.2c-4,0-7.2-3.3-7.2-7.2
	c0-0.4-0.3-0.8-0.8-0.8s-0.8,0.3-0.8,0.8c0,4.8,3.9,8.8,8.8,8.8c4.8,0,8.8-3.9,8.8-8.8S17.8,1045.4,13,1045.4z"/>
<path class="st1" d="M13,1071.4v-2.2l-7,3l7,3v-2.2c4,0,7.2,3.3,7.2,7.2s-3.3,7.2-7.2,7.2c-4,0-7.2-3.3-7.2-7.2
	c0-0.4-0.3-0.8-0.8-0.8s-0.8,0.3-0.8,0.8c0,4.8,3.9,8.8,8.8,8.8c4.8,0,8.8-3.9,8.8-8.8S17.8,1071.4,13,1071.4z"/>
<circle class="st2" cx="13" cy="1102" r="4"/>
<path class="st0" d="M20,1102c0-3.9-3.1-7-7-7s-7,3.1-7,7c0,1.5,0.5,2.9,1.3,4h0l5.7,9l5.7-9h0C19.5,1104.9,20,1103.5,20,1102z
	 M13,1106c-2.2,0-4-1.8-4-4c0-2.2,1.8-4,4-4s4,1.8,4,4C17,1104.2,15.2,1106,13,1106z"/>
<circle class="st2" cx="13" cy="1128" r="4"/>
<path class="st1" d="M20,1128c0-3.9-3.1-7-7-7s-7,3.1-7,7c0,1.5,0.5,2.9,1.3,4h0l5.7,9l5.7-9h0C19.5,1130.9,20,1129.5,20,1128z
	 M13,1132c-2.2,0-4-1.8-4-4c0-2.2,1.8-4,4-4s4,1.8,4,4C17,1130.2,15.2,1132,13,1132z"/>
<path class="st3" d="M6,4c0,0,0,18,7,18s7-18,7-18"/>
<line class="st3" x1="4" y1="13" x2="22" y2="13"/>
<path class="st4" d="M6,30c0,0,0,18,7,18s7-18,7-18"/>
<line class="st4" x1="4" y1="39" x2="22" y2="39"/>
<g>
	<path class="st5" d="M17.9,1148.3c-2,0-4,1-5,2.9c-1.1,1.9-0.9,4.1,0.1,5.8c2,0,4-1,5-2.9C19.1,1152.2,19,1150,17.9,1148.3z"/>
	<path class="st6" d="M16.3,1147.6c-2,0.3-3.7,1.7-4.4,3.7c-0.7,2-0.2,4.2,1.1,5.7c2-0.3,3.7-1.7,4.4-3.7
		C18.1,1151.2,17.7,1149.1,16.3,1147.6z"/>
	<path class="st7" d="M14.6,1147.1c-1.9,0.7-3.4,2.3-3.7,4.5c-0.4,2.1,0.5,4.2,2.1,5.4c1.9-0.7,3.4-2.3,3.7-4.5
		C17.1,1150.4,16.2,1148.4,14.6,1147.1z"/>
	<path class="st8" d="M12.9,1147c-1.7,1-2.9,2.9-2.9,5c0,2.1,1.2,4,3,5c1.7-1,2.9-2.9,2.9-5C15.9,1149.8,14.7,1148,12.9,1147z"/>
	<path class="st9" d="M11.2,1147.2c-1.5,1.3-2.4,3.3-2,5.5c0.4,2.1,1.9,3.7,3.8,4.4c1.5-1.3,2.4-3.3,2-5.5
		C14.6,1149.4,13.1,1147.8,11.2,1147.2z"/>
	<path class="st10" d="M9.5,1147.6c-1.3,1.5-1.7,3.7-1,5.7c0.8,2,2.5,3.3,4.5,3.6c1.3-1.5,1.7-3.7,1-5.7
		C13.2,1149.3,11.5,1147.9,9.5,1147.6z"/>
	<path class="st11" d="M7.9,1148.4c-1,1.7-1.1,3.9,0,5.8C9,1156,11,1157,13,1157c1-1.7,1.1-3.9,0-5.8
		C11.9,1149.3,9.9,1148.3,7.9,1148.4z"/>
	<path class="st12" d="M6.5,1149.4c-0.7,1.9-0.4,4.1,1,5.7c1.4,1.6,3.5,2.3,5.5,1.9c0.7-1.9,0.4-4.1-1-5.7
		C10.6,1149.7,8.5,1149,6.5,1149.4z"/>
	<path class="st13" d="M5.3,1150.7c-0.4,2,0.3,4.1,2,5.4c1.7,1.4,3.9,1.6,5.7,0.9c0.4-2-0.3-4.1-2-5.4
		C9.3,1150.2,7.1,1149.9,5.3,1150.7z"/>
	<path class="st14" d="M4.3,1152.1c0,2,1,4,2.9,5c1.9,1.1,4.1,0.9,5.8-0.1c0-2-1-4-2.9-5C8.2,1150.9,6,1151,4.3,1152.1z"/>
	<path class="st15" d="M3.6,1153.7c0.3,2,1.7,3.7,3.7,4.4c2,0.7,4.2,0.2,5.7-1.1c-0.3-2-1.7-3.7-3.7-4.4
		C7.2,1151.9,5.1,1152.3,3.6,1153.7z"/>
	<path class="st16" d="M3.1,1155.4c0.7,1.9,2.3,3.4,4.5,3.7c2.1,0.4,4.2-0.5,5.4-2.1c-0.7-1.9-2.3-3.4-4.5-3.7
		C6.4,1152.9,4.4,1153.8,3.1,1155.4z"/>
	<path class="st17" d="M3,1157.1c1,1.7,2.9,2.9,5,2.9s4-1.2,5-3c-1-1.7-2.9-2.9-5-2.9C5.8,1154.1,4,1155.3,3,1157.1z"/>
	<path class="st18" d="M3.2,1158.8c1.3,1.5,3.3,2.4,5.5,2c2.1-0.4,3.7-1.9,4.4-3.8c-1.3-1.5-3.3-2.4-5.5-2
		C5.4,1155.4,3.8,1156.9,3.2,1158.8z"/>
	<path class="st19" d="M3.6,1160.5c1.5,1.3,3.7,1.7,5.7,1c2-0.8,3.3-2.5,3.6-4.5c-1.5-1.3-3.7-1.7-5.7-1
		C5.3,1156.8,3.9,1158.5,3.6,1160.5z"/>
	<path class="st20" d="M4.4,1162.1c1.7,1,3.9,1.1,5.8,0c1.9-1.1,2.9-3.1,2.8-5.1c-1.7-1-3.9-1.1-5.8,0
		C5.3,1158.1,4.3,1160.1,4.4,1162.1z"/>
	<path class="st21" d="M5.4,1163.5c1.9,0.7,4.1,0.4,5.7-1c1.6-1.4,2.3-3.5,1.9-5.5c-1.9-0.7-4.1-0.4-5.7,1
		C5.7,1159.4,5,1161.5,5.4,1163.5z"/>
	<path class="st22" d="M6.7,1164.7c2,0.4,4.1-0.3,5.4-2c1.4-1.7,1.6-3.9,0.9-5.7c-2-0.4-4.1,0.3-5.4,2
		C6.2,1160.7,5.9,1162.9,6.7,1164.7z"/>
	<path class="st23" d="M8.1,1165.7c2,0,4-1,5-2.9c1.1-1.9,0.9-4.1-0.1-5.8c-2,0-4,1-5,2.9C6.9,1161.8,7,1164,8.1,1165.7z"/>
	<path class="st24" d="M9.7,1166.4c2-0.3,3.7-1.7,4.4-3.7c0.7-2,0.2-4.2-1.1-5.7c-2,0.3-3.7,1.7-4.4,3.7
		C7.9,1162.8,8.3,1164.9,9.7,1166.4z"/>
	<path class="st25" d="M11.4,1166.9c1.9-0.7,3.4-2.3,3.7-4.5c0.4-2.1-0.5-4.2-2.1-5.4c-1.9,0.7-3.4,2.3-3.7,4.5
		C8.9,1163.6,9.8,1165.6,11.4,1166.9z"/>
	<path class="st26" d="M13.1,1167c1.7-1,2.9-2.9,2.9-5c0-2.2-1.2-4-3-5c-1.7,1-2.9,2.9-2.9,5C10.1,1164.2,11.3,1166,13.1,1167z"/>
	<path class="st27" d="M14.8,1166.8c1.5-1.3,2.4-3.3,2-5.5c-0.4-2.1-1.9-3.7-3.8-4.4c-1.5,1.3-2.4,3.3-2,5.5
		C11.4,1164.6,12.9,1166.2,14.8,1166.8z"/>
	<path class="st28" d="M16.5,1166.4c1.3-1.5,1.7-3.7,1-5.7c-0.8-2-2.5-3.3-4.5-3.6c-1.3,1.5-1.7,3.7-1,5.7
		C12.8,1164.7,14.5,1166.1,16.5,1166.4z"/>
	<path class="st29" d="M18.1,1165.6c1-1.7,1.1-3.9,0-5.8C17,1158,15,1157,13,1157c-1,1.7-1.1,3.9,0,5.8
		C14.1,1164.7,16.1,1165.7,18.1,1165.6z"/>
	<path class="st30" d="M19.5,1164.6c0.7-1.9,0.4-4.1-1-5.7c-1.4-1.6-3.5-2.3-5.5-1.9c-0.7,1.9-0.4,4.1,1,5.7
		C15.4,1164.3,17.5,1165,19.5,1164.6z"/>
	<path class="st31" d="M20.7,1163.3c0.4-2-0.3-4.1-2-5.4c-1.7-1.4-3.9-1.6-5.7-0.9c-0.4,2,0.3,4.1,2,5.4
		C16.7,1163.8,18.9,1164.1,20.7,1163.3z"/>
	<path class="st32" d="M21.7,1161.9c0-2-1-4-2.9-5c-1.9-1.1-4.1-0.9-5.8,0.1c0,2,1,4,2.9,5C17.8,1163.1,20,1163,21.7,1161.9z"/>
	<path class="st33" d="M22.4,1160.3c-0.3-2-1.7-3.7-3.7-4.4c-2-0.7-4.2-0.2-5.7,1.1c0.3,2,1.7,3.7,3.7,4.4
		C18.8,1162.1,20.9,1161.7,22.4,1160.3z"/>
	<path class="st33" d="M22.9,1158.6c-0.7-1.9-2.3-3.4-4.5-3.7c-2.1-0.4-4.2,0.5-5.4,2.1c0.7,1.9,2.3,3.4,4.5,3.7
		C19.6,1161.1,21.6,1160.2,22.9,1158.6z"/>
	<path class="st34" d="M23,1156.9c-1-1.7-2.9-2.9-5-2.9c-2.1,0-4,1.2-5,3c1,1.7,2.9,2.9,5,2.9C20.2,1159.9,22,1158.7,23,1156.9z"/>
	<path class="st35" d="M22.8,1155.2c-1.3-1.5-3.3-2.4-5.5-2c-2.1,0.4-3.7,1.9-4.4,3.8c1.3,1.5,3.3,2.4,5.5,2
		C20.6,1158.6,22.2,1157.1,22.8,1155.2z"/>
	<path class="st36" d="M22.4,1153.5c-1.5-1.3-3.7-1.7-5.7-1c-2,0.8-3.3,2.5-3.6,4.5c1.5,1.3,3.7,1.7,5.7,1
		C20.7,1157.2,22.1,1155.5,22.4,1153.5z"/>
	<path class="st5" d="M21.6,1151.9c-1.7-1-3.9-1.1-5.8,0c-1.9,1.1-2.9,3.1-2.8,5.1c1.7,1,3.9,1.1,5.8,0
		C20.7,1155.9,21.7,1153.9,21.6,1151.9z"/>
	<path class="st5" d="M20.6,1150.5c-1.9-0.7-4.1-0.4-5.7,1c-1.6,1.4-2.3,3.5-1.9,5.5c1.9,0.7,4.1,0.4,5.7-1
		C20.3,1154.6,21,1152.5,20.6,1150.5z"/>
	<path class="st37" d="M19.3,1149.3c-2-0.4-4.1,0.3-5.4,2c-1.4,1.7-1.6,3.9-0.9,5.7c2,0.4,4.1-0.3,5.4-2
		C19.8,1153.3,20.1,1151.1,19.3,1149.3z"/>
</g>
</svg>
