<?xml version="1.0" encoding="utf-8"?>
<!-- Generator: Adobe Illustrator 21.0.0, SVG Export Plug-In . SVG Version: 6.00 Build 0)  -->
<svg version="1.1" id="Layer_1" xmlns="http://www.w3.org/2000/svg" xmlns:xlink="http://www.w3.org/1999/xlink" x="0px" y="0px"
	 width="32px" height="1056px" viewBox="0 0 32 1056" style="enable-background:new 0 0 32 1056;" xml:space="preserve">
<style type="text/css">
	.st0{fill:#FFFFFF;}
	.st1{fill:none;stroke:#FFFFFF;stroke-width:1.6;stroke-linecap:round;stroke-linejoin:round;stroke-miterlimit:10;}
	.st2{fill:none;stroke:#FFFFFF;stroke-width:1.6;stroke-linejoin:round;stroke-miterlimit:10;}
	.st3{fill:none;stroke:#666666;stroke-width:1.6;stroke-linejoin:round;stroke-miterlimit:10;}
	.st4{fill:#666666;}
	.st5{fill:#FFFFFF;stroke:#FFFFFF;stroke-miterlimit:10;}
	.st6{fill:#333333;}
	.st7{fill:none;stroke:#333333;stroke-miterlimit:10;}
	.st8{fill:none;stroke:#666666;stroke-width:1.6;stroke-linecap:round;stroke-linejoin:round;stroke-miterlimit:10;}
	.st9{opacity:0.25;fill:#FFDA05;enable-background:new    ;}
	.st10{opacity:0.25;fill:#FBBF10;enable-background:new    ;}
	.st11{opacity:0.25;fill:#F29120;enable-background:new    ;}
	.st12{opacity:0.25;fill:#EB6524;enable-background:new    ;}
	.st13{opacity:0.25;fill:#E42528;enable-background:new    ;}
	.st14{opacity:0.25;fill:#BE282E;enable-background:new    ;}
	.st15{opacity:0.25;fill:#951B1E;enable-background:new    ;}
	.st16{opacity:0.25;fill:#981734;enable-background:new    ;}
	.st17{opacity:0.25;fill:#7F217F;enable-background:new    ;}
	.st18{opacity:0.25;fill:#642367;enable-background:new    ;}
	.st19{opacity:0.25;fill:#29295F;enable-background:new    ;}
	.st20{opacity:0.25;fill:#382A7F;enable-background:new    ;}
	.st21{opacity:0.25;fill:#4D4092;enable-background:new    ;}
	.st22{opacity:0.25;fill:#0D457F;enable-background:new    ;}
	.st23{opacity:0.25;fill:#045A9B;enable-background:new    ;}
	.st24{opacity:0.25;fill:#0671B8;enable-background:new    ;}
	.st25{opacity:0.25;fill:#3787C7;enable-background:new    ;}
	.st26{opacity:0.25;fill:#007F81;enable-background:new    ;}
	.st27{opacity:0.25;fill:#00959E;enable-background:new    ;}
	.st28{opacity:0.25;fill:#08A9B4;enable-background:new    ;}
	.st29{opacity:0.25;fill:#09B4BF;enable-background:new    ;}
	.st30{opacity:0.25;fill:#25AC79;enable-background:new    ;}
	.st31{opacity:0.25;fill:#00A45D;enable-background:new    ;}
	.st32{opacity:0.25;fill:#01885F;enable-background:new    ;}
	.st33{opacity:0.25;fill:#006F53;enable-background:new    ;}
	.st34{opacity:0.25;fill:#007938;enable-background:new    ;}
	.st35{opacity:0.25;fill:#009241;enable-background:new    ;}
	.st36{opacity:0.25;fill:#3BAB4D;enable-background:new    ;}
	.st37{opacity:0.25;fill:#B1CC43;enable-background:new    ;}
	.st38{opacity:0.25;fill:#8CB734;enable-background:new    ;}
	.st39{opacity:0.25;fill:#9EC545;enable-background:new    ;}
	.st40{opacity:0.25;fill:#C6D330;enable-background:new    ;}
	.st41{opacity:0.25;fill:#FFEB5F;enable-background:new    ;}
	.st42{fill:none;stroke:#FFFFFF;stroke-width:2;stroke-linecap:round;stroke-miterlimit:10;}
	.st43{fill:none;stroke:#FFFFFF;stroke-width:2;stroke-linecap:round;stroke-linejoin:round;stroke-miterlimit:10;}
	.st44{fill:none;}
	.st45{fill:none;stroke:#FFFFFF;stroke-width:3;stroke-linecap:round;stroke-linejoin:round;stroke-miterlimit:10;}
</style>
<path class="st0" d="M9.2,883.2c-0.1-0.1-0.3-0.2-0.5-0.2H6.6c-0.3,0-0.6-0.3-0.6-0.6v-4.8c0-0.3,0.3-0.6,0.6-0.6h2.1
	c0.2,0,0.3-0.1,0.5-0.2l5.8-6.6c0.4-0.4,1.1-0.2,1.1,0.4v18.8c0,0.6-0.7,0.8-1.1,0.4L9.2,883.2z"/>
<g>
	<path class="st0" d="M13.5,37.6c4.4,0,7.9,3.5,7.9,7.9s-3.5,7.9-7.9,7.9s-7.9-3.5-7.9-7.9S9.1,37.6,13.5,37.6 M13.5,36
		C8.3,36,4,40.3,4,45.5S8.3,55,13.5,55s9.5-4.3,9.5-9.5S18.7,36,13.5,36L13.5,36z"/>
</g>
<line class="st1" x1="27.2" y1="59.2" x2="20" y2="52"/>
<line class="st2" x1="5" y1="69" x2="27" y2="91"/>
<line class="st2" x1="27" y1="69" x2="5" y2="91"/>
<line class="st3" x1="5" y1="741" x2="27" y2="763"/>
<line class="st3" x1="27" y1="741" x2="5" y2="763"/>
<polyline class="st2" points="5,109 16,115 27,109 "/>
<polyline class="st3" points="5,429 16,435 27,429 "/>
<polyline class="st2" points="27,147 16,141 5,147 "/>
<polyline class="st3" points="27,467 16,461 5,467 "/>
<polyline class="st2" points="19,165 13,176 19,187 "/>
<polyline class="st3" points="19,485 13,496 19,507 "/>
<polyline class="st2" points="13,219 19,208 13,197 "/>
<polyline class="st3" points="13,539 19,528 13,517 "/>
<g>
	<path class="st4" d="M17,266.6c0.2,0,0.4,0.2,0.4,0.4v5v6c0,0.2-0.2,0.4-0.4,0.4H6c-0.2,0-0.4-0.2-0.4-0.4v-11
		c0-0.2,0.2-0.4,0.4-0.4H17 M17,265H6c-1.1,0-2,0.9-2,2v11c0,1.1,0.9,2,2,2h11c1.1,0,2-0.9,2-2v-6v-5C19,265.9,18.1,265,17,265
		L17,265z"/>
</g>
<polyline class="st3" points="18,272 27.2,266 27.2,279 18,273 "/>
<g>
	<path class="st0" d="M9.6,307.5l2.6-12.2l5.3,8c0.1,0.1,0.3,0.2,0.4,0.2s0.2,0,0.3-0.1l2.4-1.6l1.6,5.7H9.6z"/>
	<path class="st0" d="M12.5,296.5l4.7,7c0.2,0.3,0.5,0.4,0.8,0.4c0.2,0,0.4-0.1,0.6-0.2l1.9-1.2l1.3,4.4H10.2L12.5,296.5 M12,294
		l-3,14h14l-2-7l-3,2L12,294L12,294z"/>
</g>
<circle class="st5" cx="21" cy="297" r="1"/>
<g>
	<polygon class="st0" points="23,333 9,340 9,326 	"/>
</g>
<g>
	<ellipse class="st0" cx="16" cy="362" rx="2.5" ry="3.5"/>
	<path class="st0" d="M16,359c1.1,0,2,1.4,2,3s-0.9,3-2,3s-2-1.4-2-3S14.9,359,16,359 M16,358c-1.7,0-3,1.8-3,4s1.3,4,3,4s3-1.8,3-4
		S17.7,358,16,358L16,358z"/>
</g>
<g>
	<path class="st0" d="M16,371.5c-5.7,0-6.5-0.7-6.5-1.2c0-1,2.7-2.8,6.5-2.8s6.5,1.9,6.5,2.8C22.5,370.8,21.7,371.5,16,371.5z"/>
	<path class="st0" d="M16,368c3.5,0,5.8,1.7,6,2.3c-0.2,0.2-1.3,0.7-6,0.7s-5.8-0.5-6-0.7C10.2,369.7,12.5,368,16,368 M16,367
		c-3.9,0-7,2-7,3.3c0,1.4,3.1,1.7,7,1.7s7-0.3,7-1.7C23,369,19.9,367,16,367L16,367z"/>
</g>
<g>
	<path class="st0" d="M27,399H5c-0.6,0-1,0.4-1,1s0.4,1,1,1h22c0.6,0,1-0.4,1-1S27.6,399,27,399L27,399z"/>
</g>
<g>
	<path class="st0" d="M27,388H5c-0.6,0-1,0.4-1,1l0,0c0,0.6,0.4,1,1,1h22c0.6,0,1-0.4,1-1l0,0C28,388.4,27.6,388,27,388L27,388z"/>
</g>
<g>
	<path class="st0" d="M27,410H5c-0.6,0-1,0.4-1,1s0.4,1,1,1h22c0.6,0,1-0.4,1-1S27.6,410,27,410L27,410z"/>
</g>
<g>
	<path class="st4" d="M27,559H5c-0.6,0-1,0.4-1,1s0.4,1,1,1h22c0.6,0,1-0.4,1-1S27.6,559,27,559L27,559z"/>
</g>
<g>
	<path class="st4" d="M27,548H5c-0.6,0-1,0.4-1,1l0,0c0,0.6,0.4,1,1,1h22c0.6,0,1-0.4,1-1l0,0C28,548.4,27.6,548,27,548L27,548z"/>
</g>
<g>
	<path class="st4" d="M27,570H5c-0.6,0-1,0.4-1,1s0.4,1,1,1h22c0.6,0,1-0.4,1-1S27.6,570,27,570L27,570z"/>
</g>
<g>
	<path class="st4" d="M12.9,584.3c1.6,0,2.9,1.5,2.9,3.4s-1.3,3.4-2.9,3.4s-2.9-1.5-2.9-3.4S11.3,584.3,12.9,584.3 M12.9,582.7
		c-2.6,0-4.5,2.2-4.5,5s1.9,5,4.5,5s4.5-2.2,4.5-5S15.5,582.7,12.9,582.7L12.9,582.7z"/>
</g>
<g>
	<path class="st4" d="M12.9,595.9c4.6,0,7.7,2,8.3,2.9c-0.5,0.3-2.3,0.9-8.3,0.9s-7.8-0.6-8.3-0.9C5.2,597.9,8.4,595.9,12.9,595.9
		 M12.9,594.3c-5.6,0-10,2.8-10,4.6c0,2,4.4,2.4,10,2.4s10-0.4,10-2.4C22.9,597.1,18.5,594.3,12.9,594.3L12.9,594.3z"/>
</g>
<path class="st4" d="M24.6,592.7h-1.1c-0.1,0-0.2-0.1-0.2-0.2V583c0-0.1,0.1-0.2,0.2-0.2h1.1c0.1,0,0.2,0.1,0.2,0.2v9.5
	C24.9,592.6,24.8,592.7,24.6,592.7z"/>
<path class="st4" d="M29.1,587.1v1.1c0,0.1-0.1,0.2-0.2,0.2h-9.5c-0.1,0-0.2-0.1-0.2-0.2v-1.1c0-0.1,0.1-0.2,0.2-0.2h9.5
	C29,586.9,29.1,587,29.1,587.1z"/>
<g>
	<path class="st0" d="M12.9,616.3c1.6,0,2.9,1.5,2.9,3.4s-1.3,3.4-2.9,3.4s-2.9-1.5-2.9-3.4S11.3,616.3,12.9,616.3 M12.9,614.7
		c-2.6,0-4.5,2.2-4.5,5s1.9,5,4.5,5s4.5-2.2,4.5-5S15.5,614.7,12.9,614.7L12.9,614.7z"/>
</g>
<g>
	<path class="st0" d="M12.9,627.9c4.6,0,7.7,2,8.3,2.9c-0.5,0.3-2.3,0.9-8.3,0.9s-7.8-0.6-8.3-0.9C5.2,629.9,8.4,627.9,12.9,627.9
		 M12.9,626.3c-5.6,0-10,2.8-10,4.6c0,2,4.4,2.4,10,2.4s10-0.4,10-2.4C22.9,629.1,18.5,626.3,12.9,626.3L12.9,626.3z"/>
</g>
<polyline class="st1" points="28.8,615 21.4,624 19.1,622.2 "/>
<g>
	<path class="st4" d="M-16,1084.6c0.9,2,2.2,3.8,3.4,5.7c1.9,2.9,3.6,5.6,3.6,7.7c0,3.9-3.1,7-7,7s-7-3.1-7-7c0-2.1,1.8-4.8,3.6-7.7
		C-18.2,1088.5-16.9,1086.6-16,1084.6 M-16,1082c-2,6-8,11.6-8,16s3.6,8,8,8s8-3.6,8-8S-14,1088-16,1082L-16,1082z"/>
</g>
<g>
	<g>
		<path class="st6" d="M21.8,680L21.8,680c0.2,0,0.5,0.1,0.6,0.2l1.3,1.3c0.3,0.3,0.3,0.9-0.1,1.3L12,694.6l-3.6,1l1-3.6l9.6-9.6
			l2.1-2.1C21.2,680.1,21.5,680,21.8,680 M21.8,679c-0.5,0-1,0.2-1.4,0.6l-2.1,2.1l-9.8,9.8L7,697l5.5-1.5l11.9-11.9
			c0.8-0.8,0.8-2,0.1-2.7l-1.3-1.3C22.7,679.2,22.2,679,21.8,679L21.8,679z"/>
	</g>
	<line class="st7" x1="22.4" y1="685.6" x2="18.4" y2="681.5"/>
	<line class="st7" x1="8.9" y1="691.3" x2="12.7" y2="695.1"/>
</g>
<g>
	<path class="st4" d="M-22.6,232.2l-0.4,0.4h-4c-1.1,0-2,0.9-2,2v11.7c0,1.2,0.9,2.1,2,2.1h20c1.1,0,2-0.9,2-2v-11.7
		c0-1.2-0.9-2.1-2-2.1h-3.9l-0.4-0.5c-0.4-0.4-0.9-0.6-1.4-0.6H-21C-21.7,231.5-22.2,231.8-22.6,232.2z"/>
</g>
<g>
	<circle class="st0" cx="-8.5" cy="236" r="0.5"/>
</g>
<g>
	<path class="st0" d="M-17,235.5c2.5,0,4.5,2,4.5,4.5s-2,4.5-4.5,4.5s-4.5-2-4.5-4.5S-19.5,235.5-17,235.5 M-17,234.5
		c-3,0-5.5,2.5-5.5,5.5s2.5,5.5,5.5,5.5s5.5-2.5,5.5-5.5S-14,234.5-17,234.5L-17,234.5z"/>
</g>
<g>
	<path class="st0" d="M26,712h-3.9l-1-0.5c-0.6-0.3-1.2-0.5-1.8-0.5H13c-0.7,0-1.3,0.2-1.9,0.5l-1,0.5H6c-1.1,0-2,0.9-2,2v12.9
		c0,1.2,0.9,2.1,2,2.1h20c1.1,0,2-0.9,2-2v-12.8C28,713,27.1,712,26,712z M16,726.1c-3,0-5.5-2.5-5.5-5.5s2.5-5.5,5.5-5.5
		s5.5,2.5,5.5,5.5S19,726.1,16,726.1z M24.5,717.1c-0.3,0-0.5-0.2-0.5-0.5s0.2-0.5,0.5-0.5s0.5,0.2,0.5,0.5
		C25,716.9,24.8,717.1,24.5,717.1z"/>
	<path class="st0" d="M16,716.1c-2.5,0-4.5,2-4.5,4.5s2,4.5,4.5,4.5s4.5-2,4.5-4.5S18.5,716.1,16,716.1z"/>
</g>
<g>
	<path class="st4" d="M26,232h-3.9l-1-0.5c-0.6-0.3-1.2-0.5-1.8-0.5H13c-0.7,0-1.3,0.2-1.9,0.5l-1,0.5H6c-1.1,0-2,0.9-2,2v12.9
		c0,1.2,0.9,2.1,2,2.1h20c1.1,0,2-0.9,2-2v-12.8C28,233,27.1,232,26,232z M16,246.1c-3,0-5.5-2.5-5.5-5.5s2.5-5.5,5.5-5.5
		s5.5,2.5,5.5,5.5S19,246.1,16,246.1z M24.5,237.1c-0.3,0-0.5-0.2-0.5-0.5s0.2-0.5,0.5-0.5s0.5,0.2,0.5,0.5
		C25,236.9,24.8,237.1,24.5,237.1z"/>
	<path class="st4" d="M16,236.1c-2.5,0-4.5,2-4.5,4.5s2,4.5,4.5,4.5s4.5-2,4.5-4.5S18.5,236.1,16,236.1z"/>
</g>
<path class="st8" d="M27,784c0,6.1-4.9,11-11,11s-11-4.9-11-11s4.9-11,11-11c3.3,0,6.2,1.4,8.2,3.7"/>
<polyline class="st8" points="21.7,776.7 24.2,776.7 24.2,774.1 "/>
<g>
	<path class="st9" d="M21.9,645.5c-2.4,0-4.8,1.2-6,3.5c-1.3,2.2-1.1,4.9,0.1,7c2.4,0,4.8-1.2,6-3.5
		C23.3,650.3,23.1,647.6,21.9,645.5z"/>
	<path class="st10" d="M20,644.7c-2.4,0.4-4.5,2.1-5.3,4.5c-0.9,2.4-0.3,5,1.3,6.8c2.4-0.4,4.5-2.1,5.3-4.5
		C22.2,649.1,21.6,646.5,20,644.7z"/>
	<path class="st11" d="M18,644.2c-2.3,0.8-4,2.8-4.5,5.3c-0.4,2.5,0.6,5,2.5,6.5c2.3-0.8,4-2.8,4.5-5.3
		C20.9,648.1,19.8,645.7,18,644.2z"/>
	<path class="st12" d="M15.9,644c-2.1,1.2-3.5,3.5-3.5,6c0,2.6,1.5,4.8,3.6,6c2.1-1.2,3.5-3.5,3.5-6C19.4,647.4,18,645.2,15.9,644z"
		/>
	<path class="st13" d="M13.8,644.2c-1.9,1.5-2.8,4-2.4,6.5c0.5,2.5,2.3,4.5,4.6,5.3c1.9-1.5,2.8-4,2.4-6.5
		C17.9,646.9,16.1,645,13.8,644.2z"/>
	<path class="st14" d="M11.8,644.8c-1.6,1.8-2.1,4.4-1.2,6.9c0.9,2.4,3,4,5.4,4.4c1.6-1.8,2.1-4.4,1.2-6.9
		C16.3,646.7,14.2,645.1,11.8,644.8z"/>
	<path class="st15" d="M9.9,645.7c-1.2,2.1-1.3,4.7,0,7c1.3,2.2,3.7,3.4,6.1,3.4c1.2-2.1,1.3-4.7,0-7
		C14.7,646.8,12.3,645.6,9.9,645.7z"/>
	<path class="st16" d="M8.2,646.9c-0.8,2.3-0.5,4.9,1.2,6.9s4.2,2.7,6.6,2.3c0.8-2.3,0.5-4.9-1.2-6.9S10.6,646.4,8.2,646.9z"/>
	<path class="st17" d="M6.7,648.4c-0.4,2.4,0.4,4.9,2.4,6.5s4.6,2,6.9,1.1c0.4-2.4-0.4-4.9-2.4-6.5C11.6,647.8,9,647.5,6.7,648.4z"
		/>
	<path class="st18" d="M5.5,650.1c0,2.4,1.2,4.8,3.5,6c2.2,1.3,4.9,1.1,7-0.1c0-2.4-1.2-4.8-3.5-6C10.3,648.7,7.6,648.9,5.5,650.1z"
		/>
	<path class="st19" d="M4.7,652c0.4,2.4,2.1,4.5,4.5,5.3c2.4,0.9,5,0.3,6.8-1.3c-0.4-2.4-2.1-4.5-4.5-5.3
		C9.1,649.8,6.5,650.4,4.7,652z"/>
	<path class="st20" d="M4.2,654c0.8,2.3,2.8,4,5.3,4.5c2.5,0.4,5-0.6,6.5-2.5c-0.8-2.3-2.8-4-5.3-4.5C8.1,651.1,5.7,652.2,4.2,654z"
		/>
	<path class="st21" d="M4,656.1c1.2,2.1,3.5,3.5,6,3.5s4.8-1.5,6-3.6c-1.2-2.1-3.5-3.5-6-3.5C7.4,652.6,5.2,654,4,656.1z"/>
	<path class="st22" d="M4.2,658.2c1.5,1.9,4,2.8,6.5,2.4c2.5-0.5,4.5-2.3,5.2-4.6c-1.5-1.9-4-2.8-6.5-2.4
		C6.9,654.1,5,655.9,4.2,658.2z"/>
	<path class="st23" d="M4.8,660.2c1.8,1.6,4.4,2.1,6.9,1.2c2.4-0.9,4-3,4.4-5.4c-1.8-1.6-4.4-2.1-6.9-1.2
		C6.7,655.7,5.1,657.8,4.8,660.2z"/>
	<path class="st24" d="M5.7,662.1c2.1,1.2,4.7,1.3,7,0c2.2-1.3,3.4-3.7,3.4-6.1c-2.1-1.2-4.7-1.3-7,0S5.6,659.7,5.7,662.1z"/>
	<path class="st25" d="M6.9,663.8c2.3,0.8,4.9,0.5,6.9-1.2s2.7-4.2,2.3-6.6c-2.3-0.8-4.9-0.5-6.9,1.2S6.4,661.4,6.9,663.8z"/>
	<path class="st26" d="M8.4,665.3c2.4,0.4,4.9-0.4,6.5-2.4s2-4.6,1.1-6.9c-2.4-0.4-4.9,0.4-6.5,2.4C7.8,660.4,7.5,663,8.4,665.3z"/>
	<path class="st27" d="M10.1,666.5c2.4,0,4.8-1.2,6-3.5c1.3-2.2,1.1-4.9-0.1-7c-2.4,0-4.8,1.2-6,3.5C8.7,661.7,8.9,664.4,10.1,666.5
		z"/>
	<path class="st28" d="M12,667.3c2.4-0.4,4.5-2.1,5.3-4.5c0.9-2.4,0.3-5-1.3-6.8c-2.4,0.4-4.5,2.1-5.3,4.5
		C9.8,662.9,10.4,665.5,12,667.3z"/>
	<path class="st29" d="M14,667.8c2.3-0.8,4-2.8,4.5-5.3c0.4-2.5-0.6-5-2.5-6.5c-2.3,0.8-4,2.8-4.5,5.3
		C11.1,663.9,12.2,666.3,14,667.8z"/>
	<path class="st30" d="M16.1,668c2.1-1.2,3.5-3.5,3.5-6c0-2.6-1.5-4.8-3.6-6c-2.1,1.2-3.5,3.5-3.5,6C12.6,664.6,14,666.8,16.1,668z"
		/>
	<path class="st31" d="M18.2,667.8c1.9-1.5,2.8-4,2.4-6.5c-0.5-2.5-2.3-4.5-4.6-5.3c-1.9,1.5-2.8,4-2.4,6.5
		C14.1,665.1,15.9,667,18.2,667.8z"/>
	<path class="st32" d="M20.2,667.2c1.6-1.8,2.1-4.4,1.2-6.9c-0.9-2.4-3-4-5.4-4.4c-1.6,1.8-2.1,4.4-1.2,6.9
		C15.7,665.3,17.8,666.9,20.2,667.2z"/>
	<path class="st33" d="M22.1,666.3c1.2-2.1,1.3-4.7,0-7c-1.3-2.2-3.7-3.4-6.1-3.4c-1.2,2.1-1.3,4.7,0,7
		C17.3,665.2,19.7,666.4,22.1,666.3z"/>
	<path class="st34" d="M23.8,665.1c0.8-2.3,0.5-4.9-1.2-6.9s-4.2-2.7-6.6-2.3c-0.8,2.3-0.5,4.9,1.2,6.9S21.4,665.6,23.8,665.1z"/>
	<path class="st35" d="M25.3,663.6c0.4-2.4-0.4-4.9-2.4-6.5s-4.6-2-6.9-1.1c-0.4,2.4,0.4,4.9,2.4,6.5
		C20.4,664.2,23,664.5,25.3,663.6z"/>
	<path class="st36" d="M26.5,661.9c0-2.4-1.2-4.8-3.5-6c-2.2-1.3-4.9-1.1-7,0.1c0,2.4,1.2,4.8,3.5,6
		C21.7,663.3,24.4,663.1,26.5,661.9z"/>
	<path class="st37" d="M27.3,660c-0.4-2.4-2.1-4.5-4.5-5.3c-2.4-0.9-5-0.3-6.8,1.3c0.4,2.4,2.1,4.5,4.5,5.3
		C22.9,662.2,25.5,661.6,27.3,660z"/>
	<path class="st37" d="M27.8,658c-0.8-2.3-2.8-4-5.3-4.5c-2.5-0.4-5,0.6-6.5,2.5c0.8,2.3,2.8,4,5.3,4.5
		C23.9,660.9,26.3,659.8,27.8,658z"/>
	<path class="st38" d="M28,655.9c-1.2-2.1-3.5-3.5-6-3.5c-2.6,0-4.8,1.5-6,3.6c1.2,2.1,3.5,3.5,6,3.5C24.6,659.4,26.8,658,28,655.9z
		"/>
	<path class="st39" d="M27.8,653.8c-1.5-1.9-4-2.8-6.5-2.4c-2.5,0.5-4.5,2.3-5.3,4.6c1.5,1.9,4,2.8,6.5,2.4
		C25.1,657.9,27,656.1,27.8,653.8z"/>
	<path class="st40" d="M27.2,651.8c-1.8-1.6-4.4-2.1-6.9-1.2c-2.4,0.9-4,3-4.4,5.4c1.8,1.6,4.4,2.1,6.9,1.2
		C25.3,656.3,26.9,654.2,27.2,651.8z"/>
	<path class="st9" d="M26.3,649.9c-2.1-1.2-4.7-1.3-7,0c-2.2,1.3-3.4,3.7-3.4,6.1c2.1,1.2,4.7,1.3,7,0S26.4,652.3,26.3,649.9z"/>
	<path class="st9" d="M25.1,648.2c-2.3-0.8-4.9-0.5-6.9,1.2s-2.7,4.2-2.3,6.6c2.3,0.8,4.9,0.5,6.9-1.2S25.6,650.6,25.1,648.2z"/>
	<path class="st41" d="M23.6,646.7c-2.4-0.4-4.9,0.4-6.5,2.4s-2,4.6-1.1,6.9c2.4,0.4,4.9-0.4,6.5-2.4
		C24.2,651.6,24.5,649,23.6,646.7z"/>
</g>
<g>
	<polygon class="st0" points="26,816 6,826 6,806 	"/>
</g>
<rect x="6" y="838" class="st0" width="8" height="20"/>
<rect x="18" y="838" class="st0" width="8" height="20"/>
<path class="st0" d="M9.2,915.2c-0.1-0.1-0.3-0.2-0.5-0.2H6.6c-0.3,0-0.6-0.3-0.6-0.6v-4.8c0-0.3,0.3-0.6,0.6-0.6h2.1
	c0.2,0,0.3-0.1,0.5-0.2l5.8-6.6c0.4-0.4,1.1-0.2,1.1,0.4v18.8c0,0.6-0.7,0.8-1.1,0.4L9.2,915.2z"/>
<line class="st42" x1="19" y1="915" x2="25" y2="909"/>
<line class="st42" x1="25" y1="915" x2="19" y2="909"/>
<g>
	<path class="st0" d="M8,936h6v-2H7c-0.6,0-1,0.4-1,1v7h2V936z"/>
	<path class="st0" d="M6,953c0,0.6,0.4,1,1,1h7v-2H8v-6H6V953z"/>
	<path class="st0" d="M24,952h-6v2h7c0.6,0,1-0.4,1-1v-7h-2V952z"/>
	<path class="st0" d="M26,935c0-0.6-0.4-1-1-1h-7v2h6v6h2V935z"/>
</g>
<path class="st42" d="M19,888.6c3.5-1.3,6-4.7,6-8.6s-2.5-7.3-6-8.6"/>
<path class="st42" d="M19,883c0.8-0.8,1.2-1.8,1.2-3s-0.5-2.2-1.2-3"/>
<g>
	<polygon class="st0" points="19,965 19,971 26,968 	"/>
</g>
<path class="st43" d="M25,972v10c0,2.2-1.8,4-4,4H11c-2.2,0-4-1.8-4-4v-10c0-2.2,1.8-4,4-4h10"/>
<g>
	<polygon class="st0" points="16,1002 16,996 9,999 	"/>
</g>
<path class="st43" d="M16,999c5,0,9,4,9,9s-4,9-9,9s-9-4-9-9"/>
<g>
	<circle class="st44" cx="16" cy="1037" r="4"/>
	<path class="st4" d="M23,1037c0-3.9-3.1-7-7-7s-7,3.1-7,7c0,1.5,0.5,2.9,1.3,4l0,0l5.7,9l5.7-9l0,0C22.5,1039.9,23,1038.5,23,1037z
		 M16,1041c-2.2,0-4-1.8-4-4s1.8-4,4-4s4,1.8,4,4S18.2,1041,16,1041z"/>
</g>
<path class="st0" d="M0,0v32h32V0H0z M24.5,16c0,4.7-3.8,8.5-8.5,8.5S7.5,20.7,7.5,16V9c0-0.8,0.7-1.5,1.5-1.5s1.5,0.7,1.5,1.5v7
	c0,3,2.5,5.5,5.5,5.5s5.5-2.5,5.5-5.5V9c0-0.8,0.7-1.5,1.5-1.5s1.5,0.7,1.5,1.5V16z"/>
<path class="st45" d="M-5.3,9.4v7c0,3.9-3.1,7-7,7l0,0l0,0c-3.9,0-7-3.1-7-7v-7"/>
</svg>
